<?xml version="1.0" encoding="utf-8"?>
<!-- Generator: Adobe Illustrator 22.0.1, SVG Export Plug-In . SVG Version: 6.00 Build 0)  -->
<svg version="1.1" id="Capa_1" xmlns="http://www.w3.org/2000/svg" xmlns:xlink="http://www.w3.org/1999/xlink" x="0px" y="0px"
	 viewBox="0 0 385.6 385.6" style="enable-background:new 0 0 385.6 385.6;" xml:space="preserve">
<style type="text/css">
	.st0{fill:#6A6A6A;}
</style>
<path class="st0" d="M369.9,385.6c-4.2,0-7.8-1.6-11-4.7L269.1,291c-6.3-6.3-6.3-16.2,0-21.9c6.3-6.3,16.2-6.3,21.9,0l89.9,89.9
	c6.3,6.3,6.3,16.2,0,21.9C377.7,384,374.1,385.6,369.9,385.6z"/>
<path class="st0" d="M169.8,339.6C76.3,339.6,0,263.3,0,169.8S76.3,0,169.8,0s169.8,76.3,169.8,169.8S263.3,339.6,169.8,339.6z
	 M169.8,31.3c-76.3,0-138.4,62.2-138.4,138.4s62.2,138.4,138.4,138.4s138.4-62.2,138.4-138.4S246.1,31.3,169.8,31.3z"/>
</svg>
